<?xml version="1.0" encoding="UTF-8"?>
<svg id="_レイヤー_1" xmlns="http://www.w3.org/2000/svg" version="1.1" viewBox="0 0 1000 300">
  <!-- Generator: Adobe Illustrator 29.6.0, SVG Export Plug-In . SVG Version: 2.1.1 Build 207)  -->
  <defs>
    <style>
      .st0 {
        fill: #ff69b4;
      }

      .st1 {
        fill: #fd0;
      }

      .st2 {
        fill: orange;
      }

      .st3 {
        fill: #87ceeb;
      }

      .st4 {
        fill: #90ee90;
      }
    </style>
  </defs>
  <path class="st0" d="M36.85,66.74l45.52-5.52c4.87-.77,9.26-1.97,13.15-3.61,1.67-.67,3.17-1.09,4.49-1.25,4.66-.57,9.62,2.34,14.86,8.72s8.31,13.22,9.2,20.53c.61,5.01-.47,8.85-3.25,11.53-2.09,2.01-4.75,3.21-7.98,3.6-3.05.37-5.8-.16-8.26-1.58-2.45-1.42-5.01-3.96-7.67-7.62-2.33-3.34-4.12-5.49-5.34-6.45-1.23-.96-2.62-1.35-4.17-1.16-2.13.26-3.55,1.34-4.25,3.23-.7,1.9-.81,4.89-.31,8.98l5.87,48.37c.6,4.95,1.56,8.49,2.86,10.61,1.31,2.12,3.48,3.61,6.5,4.47,3.27.95,5.54,1.95,6.8,2.99,1.27,1.04,2.03,2.6,2.28,4.68.5,4.15-1.93,7.57-7.3,10.26s-13.87,4.75-25.5,6.16c-14.28,1.73-25.02,1.84-32.22.32-6.05-1.25-9.35-4.07-9.88-8.44-.29-2.36.53-4.33,2.44-5.91.48-.35,2.44-1.29,5.88-2.82,2.11-.9,3.48-2.29,4.09-4.18.62-1.88.88-5.4.78-10.53-.08-4.55-.53-11.87-1.35-21.97-.82-10.1-1.67-18.83-2.57-26.2-.63-5.18-1.48-8.82-2.55-10.91-1.07-2.09-2.53-3.02-4.37-2.8-2.25.27-4.24,2.15-5.98,5.63-3.15,6.34-5.84,10.61-8.09,12.81-2.66,2.6-5.38,4.07-8.14,4.41-3.11.38-5.81-.48-8.11-2.57-2.3-2.09-3.67-4.95-4.11-8.57s-.1-7.6.99-12.08c1.09-4.48,2.77-8.71,5.04-12.66,3.66-6.4,7.63-9.87,11.89-10.38,1.15-.14,2.5-.13,4.04.04,3.19.26,5.79.38,7.8.37,2.01-.01,4.32-.17,6.91-.49h0Z"/>
  <path class="st2" d="M203.37,86.19c10.37,6.24,17.65,14.65,21.83,25.24,2.79,7.23,3.88,15.08,3.24,23.54-.69,8.37-2.98,15.79-6.86,22.25-5.73,9.53-13.99,16.15-24.8,19.87-9.16,3.18-18.88,3.57-29.14,1.19-6.31-1.48-12.12-3.83-17.45-7.03-6.98-4.2-12.79-9.67-17.42-16.4-5.6-8.15-8.44-17.08-8.53-26.8-.11-9.41,2.32-18.25,7.29-26.52,5.77-9.6,13.59-16.44,23.46-20.51,8.77-3.63,18.18-4.51,28.21-2.65,6.75,1.2,13.47,3.82,20.17,7.84v-.02ZM187.18,100.11c-3.39-2.04-6.98-2.14-10.78-.3-2.89,1.34-5.27,3.56-7.14,6.67-2.74,4.56-4.99,10.39-6.73,17.5-1.75,7.11-2.6,13.83-2.57,20.17.06,2.73.66,5.23,1.79,7.51,1.13,2.28,2.65,3.98,4.54,5.12,3.07,1.84,6.23,2.18,9.49,1.01,3.26-1.17,6.02-3.63,8.27-7.39,2.93-4.88,5.31-10.62,7.14-17.22,1.82-6.6,2.68-12.64,2.58-18.14-.06-3.38-.67-6.39-1.83-9.01-1.17-2.63-2.76-4.6-4.77-5.92h.01Z"/>
  <path class="st4" d="M246.82,59.08c12.04,1.02,21.17,2.44,27.38,4.26,2.84.8,5.07,2.08,6.68,3.86s2.33,3.71,2.16,5.8c-.13,1.6-.95,3.17-2.44,4.71-2.18,2.35-3.31,4.08-3.41,5.19-.19,2.21,1.27,5.89,4.36,11.04,2.01,3.32,4.03,5.07,6.05,5.24,1.29.11,2.59-.26,3.9-1.11s3.05-2.42,5.22-4.71c2.65-2.81,4.05-5.1,4.2-6.88.09-1.11.03-1.95-.2-2.52s-1.12-1.98-2.66-4.21c-1.11-1.52-1.56-3.47-1.36-5.87.59-6.94,10.28-9.62,29.07-8.03,10.63.9,17.49,1.97,20.61,3.22,1.98.79,3.55,2.1,4.73,3.92,1.18,1.83,1.68,3.73,1.51,5.7-.21,2.52-1.14,4.36-2.79,5.52-1.64,1.16-4.4,1.92-8.26,2.27-3.56.38-6.71,1.46-9.46,3.24s-7.87,6.06-15.37,12.85c-9.11,8.32-14.88,14.53-17.3,18.63-2.42,4.1-3.98,10.38-4.7,18.86-.6,7.13-.88,13.75-.84,19.88,0,3.77.35,6.42,1.09,7.93.74,1.52,2.4,3.09,4.98,4.73,4.29,2.71,6.28,5.82,5.99,9.32-.7,8.35-13.4,11.49-38.09,9.41-10.13-.85-19.63-2.65-28.5-5.37-7.48-2.3-11.01-5.91-10.59-10.82.32-3.81,2.89-6.34,7.69-7.61,3.6-.93,5.92-2.32,6.94-4.15,2.32-4.07,4.15-14,5.48-29.79.41-4.91.24-8.78-.51-11.59s-2.6-6.54-5.55-11.19c-6.18-9.61-12.65-18.36-19.41-26.23-2.93-3.4-5.82-5.78-8.68-7.13-4.05-1.89-6.47-3.24-7.27-4.05-1.6-1.62-2.29-3.66-2.08-6.11.35-4.11,3.7-6.82,10.06-8.11s16.81-1.32,31.37-.09h0Z"/>
  <path class="st0" d="M390.77,93.82c5.15.99,11.66,3.57,19.53,7.74.94.49,1.71.8,2.32.91.5.1,2.09-.06,4.76-.48.86-.15,1.74-.13,2.64.04,3.35.65,6.38,3.98,9.09,10.01,2.7,6.02,3.59,11.44,2.67,16.24-.54,2.8-1.84,5.01-3.88,6.61-2.05,1.6-4.27,2.17-6.68,1.71-2-.39-3.55-1.1-4.65-2.14s-3.39-3.95-6.88-8.72c-4.92-6.76-10.29-10.71-16.09-11.83-2.8-.54-5.17-.3-7.11.73-1.94,1.03-3.12,2.64-3.54,4.84-.84,4.35,2.36,8.37,9.59,12.05,9.77,5.05,15.97,8.56,18.6,10.52,11.56,8.67,16.18,19.03,13.85,31.09-2.06,10.66-8.09,18.53-18.1,23.6-10.24,5.19-22.54,6.39-36.91,3.62-6.41-1.24-13.02-3.3-19.83-6.2s-11.6-5.67-14.35-8.34c-2.09-2.07-3.59-5.97-4.47-11.73-.89-5.75-.84-11.18.14-16.28.47-2.45,1.33-4.21,2.57-5.27,1.56-1.36,3.29-1.86,5.19-1.49s3.54,1.7,4.91,3.99c.84,1.3,2.63,5.31,5.39,12.02,1.31,3.16,3.8,6.06,7.47,8.68,3.67,2.63,7.66,4.36,11.96,5.19,3.7.71,6.84.61,9.41-.33,2.57-.93,4.06-2.47,4.47-4.63.39-2-.18-3.9-1.7-5.7-1.52-1.8-4.19-3.72-8-5.75-6.72-3.63-11.78-6.75-15.17-9.35s-6.44-5.64-9.14-9.12c-6.56-8.53-8.97-17.25-7.25-26.16.85-4.4,2.7-8.5,5.56-12.28s6.46-6.84,10.8-9.17c9.77-5.43,20.71-6.98,32.82-4.65v.03Z"/>
  <path class="st2" d="M694.89,169.14l-7.81,24.41c-1.35,4.12-2.51,6.92-3.45,8.39-.95,1.48-2.08,2.29-3.41,2.43s-2.45-.28-3.55-1.27c-.71-.62-2.45-3-5.21-7.13s-5.08-7.81-6.95-11.05l-14.25-24.43c-1.95-3.4-3.79-5.01-5.52-4.82-1.85.2-2.69,1.84-2.52,4.92.35,6.85.84,13.16,1.47,18.92.66,6,1.4,10.03,2.21,12.1.54,1.22,1.18,2.09,1.91,2.59s2.64,1.34,5.75,2.52c2.01.77,3.15,2.37,3.42,4.79.71,6.46-7.21,10.6-23.75,12.42-13.96,1.54-21.28-.84-21.97-7.12-.18-1.61.05-2.82.69-3.62.64-.8,2.38-2.09,5.22-3.86,1.81-1.07,2.96-2.4,3.46-3.97s.74-4.55.72-8.92c.01-4.67-.34-12.29-1.03-22.87-.7-10.57-1.46-19.61-2.29-27.1-1.04-9.4-2.46-15.69-4.27-18.88-.65-1.1-1.33-1.9-2.06-2.4s-2.06-1.11-4.01-1.83c-4.31-1.51-6.64-3.82-6.98-6.93-.22-2.02.34-3.95,1.68-5.79,1.34-1.84,3.24-3.25,5.71-4.22,2.45-1.03,5.77-2.05,9.95-3.07,4.18-1.01,7.74-1.68,10.68-2.01,7.38-.81,12.66-.78,15.86.09,1.56.41,2.83,1.06,3.8,1.94.97.89,2.44,2.77,4.39,5.64l21.64,31.14c2.36,3.42,3.96,5.49,4.8,6.21.84.73,1.92,1.01,3.25.87,1.15-.13,2.13-.67,2.93-1.64.8-.96,1.67-2.69,2.62-5.19l9.57-25.13c1.16-3.22,1.92-5.32,2.28-6.29,2.19-6.07,4.56-10.22,7.12-12.43,3.24-2.86,9.51-4.81,18.79-5.84,16.32-1.8,24.89,1.02,25.71,8.46.18,1.67.02,3.05-.51,4.13-.52,1.08-1.69,2.45-3.49,4.1-2.43,2.31-3.78,5.41-4.05,9.29-.45,8.1-.04,17.86,1.21,29.28,1.62,14.7,3.73,27.51,6.34,38.43.64,2.67,1.38,4.46,2.21,5.36s2.85,2.17,6.06,3.8c2.23,1.16,3.47,2.89,3.72,5.19.44,4.04-1.92,7.19-7.1,9.45-2.67,1.23-5.51,2.15-8.54,2.78-3.02.63-7.71,1.29-14.05,1.99-9.74,1.07-17.09,1.18-22.02.33-5.48-.97-8.42-3.33-8.83-7.08-.15-1.38.07-2.56.66-3.53.59-.97,2.2-2.79,4.82-5.48,1.37-1.38,2.13-3.82,2.3-7.34.17-3.52-.21-9.43-1.12-17.73-.51-4.61-1.06-7.62-1.65-9.01s-1.58-2.01-2.96-1.86c-1.61.18-3.05,1.46-4.3,3.84-1.26,2.39-3.02,7.06-5.28,14.02h-.02Z"/>
  <path class="st4" d="M865.5,122.98l15.95,31.14c1.52,2.87,2.76,4.74,3.73,5.62.97.88,2.43,1.44,4.37,1.68,3.78.44,5.72,2.27,5.84,5.5.14,3.81-2.05,6.63-6.58,8.47s-12.01,2.95-22.44,3.33c-11.79.43-20.54.26-26.26-.52-2.62-.37-4.73-1.25-6.32-2.63s-2.42-3.08-2.5-5.12c-.06-1.56.3-2.79,1.08-3.68s2.25-1.74,4.41-2.55c2.42-.92,3.59-2.38,3.52-4.36-.13-3.49-2.32-5.48-6.56-5.95-4.56-.46-10.96-.54-19.2-.23-6.94.26-11.07.83-12.39,1.71-.82.55-1.51,1.52-2.09,2.9-.58,1.38-.84,2.69-.79,3.95.04,1.15.29,1.88.75,2.2.46.32,1.92.83,4.4,1.52,3.22.82,4.88,2.64,4.98,5.46.23,6.21-7.09,9.58-21.95,10.13-8.45.31-14.68-.03-18.68-1.03-3.69-.96-5.6-3.29-5.74-6.99-.06-1.61.3-2.88,1.07-3.8.78-.92,2.19-1.78,4.25-2.59,3.35-1.32,5.85-3.1,7.52-5.33,1.67-2.23,3.99-6.95,6.96-14.16l10.14-24.58c3.74-9.02,6.22-15.75,7.44-20.21,1.22-4.46,1.78-8.8,1.67-13.03-.11-4.49.05-7.61.48-9.38s1.48-3.51,3.14-5.25c3.46-3.78,7.99-5.78,13.57-5.98,5.27-.19,10.38,1.68,15.33,5.62,6.88,5.39,17.19,21.43,30.92,48.13h-.02ZM811.42,134.85l15.33-.57c2.82-.1,4.2-.78,4.15-2.03-.06-1.72-2.17-5.87-6.33-12.46-1.89-3.01-3.32-5.02-4.3-6.03s-1.99-1.49-3.03-1.45c-1.88.07-3.38,1.88-4.5,5.41-.19.48-.88,2.36-2.06,5.64-1.99,5.4-2.97,8.62-2.93,9.66.05,1.3,1.27,1.91,3.67,1.82h0Z"/>
  <path class="st1" d="M955.81,75.85c5.34.72,12.16,3,20.46,6.82.99.45,1.8.72,2.43.8.52.07,2.14-.19,4.86-.77.87-.2,1.77-.23,2.71-.11,3.47.47,6.77,3.72,9.89,9.74s4.34,11.52,3.66,16.5c-.39,2.91-1.6,5.24-3.6,7-2.01,1.76-4.26,2.47-6.75,2.13-2.07-.28-3.7-.92-4.89-1.93-1.18-1-3.7-3.86-7.55-8.55-5.44-6.65-11.16-10.39-17.18-11.2-2.9-.39-5.32,0-7.25,1.16s-3.05,2.89-3.36,5.17c-.61,4.51,2.89,8.45,10.52,11.8,10.31,4.62,16.86,7.86,19.67,9.72,12.35,8.22,17.68,18.59,15.98,31.08-1.5,11.05-7.23,19.46-17.21,25.23-10.2,5.9-22.74,7.85-37.63,5.83-6.64-.9-13.53-2.64-20.68-5.22-7.15-2.58-12.21-5.15-15.19-7.72-2.26-2-4.02-5.92-5.26-11.76s-1.5-11.41-.78-16.7c.34-2.54,1.12-4.39,2.34-5.54,1.52-1.48,3.27-2.09,5.24-1.82s3.73,1.54,5.27,3.8c.93,1.29,3.01,5.29,6.21,12.01,1.52,3.17,4.24,5.99,8.16,8.47,3.91,2.49,8.1,4.03,12.56,4.64,3.84.52,7.05.23,9.62-.87,2.58-1.1,4.02-2.77,4.32-5,.28-2.07-.41-3.99-2.07-5.75-1.66-1.76-4.51-3.57-8.53-5.44-7.1-3.34-12.46-6.25-16.09-8.72s-6.92-5.41-9.89-8.83c-7.21-8.37-10.19-17.17-8.93-26.4.62-4.56,2.29-8.87,5-12.91,2.71-4.04,6.23-7.38,10.55-10.02,9.7-6.13,20.83-8.34,33.38-6.64h.01Z"/>
  <path class="st3" d="M614.97,221.14c-3.24-.75-5.6-1.95-7.09-3.6-1.49-1.65-3.27-5.03-5.33-10.14l-21.53-55.37c-18.55-47.49-33.16-76.39-43.85-86.69-7.68-7.52-15.98-11.58-24.91-12.16-9.46-.62-17.45,1.96-23.96,7.75-3.1,2.64-5.18,5.41-6.21,8.32-1.04,2.91-1.85,8.16-2.44,15.76-.56,7.16-2.26,14.39-5.09,21.71-2.84,7.32-8.2,18.27-16.08,32.85l-21.4,39.76c-6.28,11.67-11.01,19.24-14.22,22.71-3.21,3.48-7.75,6.04-13.63,7.7-3.62,1.01-6.16,2.22-7.63,3.63s-2.29,3.49-2.48,6.23c-.41,6.28,2.41,10.55,8.48,12.82,6.59,2.39,17.05,4.05,31.38,5,25.2,1.66,38.15-2.77,38.85-13.3.31-4.78-2.17-8.14-7.46-10.08-4.07-1.6-6.46-2.71-7.17-3.34-.71-.62-1.01-1.91-.88-3.85.14-2.12.82-4.3,2.03-6.53s2.55-3.74,4.03-4.53c2.39-1.26,9.47-1.51,21.23-.73,13.97.92,24.77,2.16,32.39,3.73,7.09,1.53,10.44,5.26,10.05,11.19-.22,3.36-2.46,5.61-6.71,6.75-3.8,1-6.43,2.17-7.89,3.54-1.47,1.37-2.29,3.38-2.46,6.03-.23,3.45.88,6.47,3.33,9.08s5.86,4.45,10.23,5.54c9.53,2.31,24.29,4.13,44.27,5.45,17.69,1.16,30.51.59,38.48-1.73,7.97-2.32,12.17-6.7,12.59-13.16.36-5.48-2.61-8.92-8.91-10.31v-.03ZM542.96,138.15l-16.56,6.84v17.92c.01,4.02-4.99,5.86-7.6,2.8l-11.63-13.64-17.04,5.55c-3.82,1.24-7.12-2.95-5.02-6.37l9.38-15.27-10.54-14.49c-2.36-3.25.6-7.68,4.51-6.74l17.42,4.2,10.53-14.5c2.36-3.25,7.49-1.8,7.8,2.2l1.39,17.87,17.05,5.53c3.82,1.24,4.03,6.57.32,8.1h-.01Z"/>
</svg>