<?xml version="1.0" encoding="UTF-8"?>
<svg id="_レイヤー_3" data-name="レイヤー 3" xmlns="http://www.w3.org/2000/svg" viewBox="0 0 1000 300">
  <defs>
    <style>
      .cls-1 {
        fill: #ff69b4;
      }

      .cls-2 {
        fill: #fd0;
      }

      .cls-3 {
        fill: #fff;
      }

      .cls-4 {
        fill: orange;
      }

      .cls-5 {
        fill: #87ceeb;
      }

      .cls-6 {
        fill: #90ee90;
      }
    </style>
  </defs>
  <g>
    <path class="cls-3" d="M107.99,57.64c4.27,0,8.77,2.89,13.52,8.66,5.17,6.28,8.19,13.03,9.06,20.24.6,4.94-.47,8.73-3.2,11.36-2.06,1.98-4.68,3.16-7.86,3.55-.62.08-1.23.11-1.82.11-2.29,0-4.4-.56-6.31-1.67-2.42-1.4-4.94-3.91-7.56-7.51-2.3-3.29-4.06-5.41-5.26-6.36-1.01-.79-2.14-1.19-3.37-1.19-.24,0-.49.02-.74.05-2.1.25-3.5,1.32-4.19,3.19-.69,1.87-.8,4.82-.31,8.85l5.78,47.67c.59,4.88,1.53,8.37,2.82,10.46,1.29,2.09,3.43,3.56,6.41,4.41,3.22.94,5.46,1.92,6.71,2.94,1.25,1.03,2,2.57,2.24,4.61.5,4.09-1.9,7.46-7.2,10.12s-13.67,4.68-25.14,6.07c-7.49.91-13.99,1.36-19.51,1.36-4.85,0-8.93-.35-12.24-1.05-5.97-1.23-9.21-4.01-9.73-8.32-.28-2.33.52-4.26,2.4-5.82.48-.35,2.41-1.27,5.8-2.78,2.08-.89,3.43-2.26,4.04-4.12.61-1.86.87-5.32.77-10.37-.08-4.48-.53-11.7-1.33-21.65-.81-9.95-1.65-18.56-2.53-25.82-.62-5.11-1.46-8.69-2.51-10.75-.96-1.86-2.22-2.79-3.79-2.79-.17,0-.34.01-.52.03-2.21.27-4.18,2.12-5.89,5.55-3.1,6.25-5.76,10.46-7.97,12.63-2.63,2.56-5.3,4.01-8.03,4.34-.47.06-.93.09-1.38.09-2.49,0-4.7-.87-6.62-2.61-2.27-2.06-3.61-4.87-4.05-8.45-.43-3.52-.1-7.49.97-11.91,1.08-4.42,2.73-8.58,4.96-12.48,3.61-6.31,7.52-9.72,11.72-10.23.52-.06,1.08-.1,1.69-.1.71,0,1.47.04,2.29.13,2.99.24,5.46.36,7.4.36.1,0,.2,0,.29,0,1.99-.01,4.26-.17,6.81-.48l44.86-5.44c4.8-.76,9.12-1.94,12.96-3.56,1.65-.66,3.12-1.07,4.43-1.23.37-.05.75-.07,1.13-.07M107.99,54.64h0c-.5,0-1,.03-1.49.09-1.58.19-3.28.66-5.18,1.42h-.03s-.03.02-.03.02c-3.57,1.51-7.68,2.63-12.2,3.35l-44.81,5.44c-2.43.29-4.6.45-6.46.46h-.28c-1.85,0-4.24-.12-7.12-.35-.91-.1-1.77-.14-2.57-.14-.72,0-1.41.04-2.05.12-5.17.63-9.87,4.57-13.96,11.72-2.36,4.12-4.14,8.58-5.28,13.26-1.16,4.75-1.51,9.12-1.04,12.98.52,4.3,2.21,7.76,5.01,10.31,2.48,2.25,5.38,3.39,8.63,3.39.57,0,1.15-.04,1.74-.11,3.38-.41,6.66-2.15,9.76-5.17,2.48-2.43,5.28-6.83,8.56-13.44,1.19-2.38,2.46-3.77,3.57-3.91.05,0,.1-.01.15-.01.35,0,.73.39,1.12,1.16.61,1.19,1.49,3.85,2.2,9.74.87,7.16,1.72,15.81,2.52,25.71.8,9.84,1.24,17.06,1.32,21.46.12,6.16-.34,8.52-.62,9.38-.21.64-.68,1.58-2.36,2.29-5,2.22-5.91,2.77-6.38,3.11l-.08.05-.07.06c-2.68,2.21-3.88,5.15-3.47,8.5.48,3.93,2.96,9.01,12.11,10.9,3.49.74,7.82,1.11,12.85,1.11,5.61,0,12.29-.47,19.87-1.39,11.92-1.45,20.46-3.53,26.12-6.37,8.12-4.08,9.28-9.41,8.83-13.16-.34-2.82-1.46-5.03-3.31-6.56-1.58-1.3-4.13-2.45-7.78-3.51-2.27-.65-3.8-1.66-4.69-3.1-.73-1.17-1.73-3.73-2.4-9.24l-5.78-47.67c-.56-4.63-.15-6.65.14-7.44.26-.69.62-1.12,1.74-1.25.13-.02.26-.02.38-.02.57,0,1.04.17,1.53.55.54.43,1.88,1.74,4.65,5.71l.02.02.02.02c2.9,3.98,5.67,6.7,8.48,8.33,2.37,1.38,5,2.08,7.82,2.08.71,0,1.45-.05,2.18-.13,3.82-.46,7.04-1.93,9.58-4.36,3.44-3.31,4.82-7.98,4.1-13.89-.94-7.75-4.21-15.08-9.73-21.78-5.4-6.56-10.58-9.75-15.83-9.75h0Z"/>
    <path class="cls-1" d="M44.61,67.94l44.86-5.44c4.8-.76,9.12-1.94,12.96-3.56,1.65-.66,3.12-1.07,4.43-1.23,4.6-.56,9.48,2.31,14.65,8.59,5.17,6.28,8.19,13.03,9.06,20.24.6,4.94-.47,8.73-3.2,11.36-2.06,1.98-4.68,3.16-7.86,3.55-3.01.37-5.72-.16-8.14-1.56-2.42-1.4-4.94-3.91-7.56-7.51-2.3-3.29-4.06-5.41-5.26-6.36-1.21-.95-2.58-1.33-4.11-1.14-2.1.25-3.5,1.32-4.19,3.19-.69,1.87-.8,4.82-.31,8.85l5.78,47.67c.59,4.88,1.53,8.37,2.82,10.46,1.29,2.09,3.43,3.56,6.41,4.41,3.22.94,5.46,1.92,6.71,2.94,1.25,1.03,2,2.57,2.24,4.61.5,4.09-1.9,7.46-7.2,10.12-5.29,2.66-13.67,4.68-25.14,6.07-14.08,1.71-24.66,1.81-31.75.31-5.97-1.23-9.21-4.01-9.73-8.32-.28-2.33.52-4.26,2.4-5.82.48-.35,2.41-1.27,5.8-2.78,2.08-.89,3.43-2.26,4.04-4.12.61-1.86.87-5.32.77-10.37-.08-4.48-.53-11.7-1.33-21.65-.81-9.95-1.65-18.56-2.53-25.82-.62-5.11-1.46-8.69-2.51-10.75-1.06-2.06-2.49-2.98-4.31-2.76-2.21.27-4.18,2.12-5.89,5.55-3.1,6.25-5.76,10.46-7.97,12.63-2.63,2.56-5.3,4.01-8.03,4.34-3.06.37-5.73-.47-8-2.53-2.27-2.06-3.61-4.87-4.05-8.45-.43-3.52-.1-7.49.97-11.91,1.08-4.42,2.73-8.58,4.96-12.48,3.61-6.31,7.52-9.72,11.72-10.23,1.14-.14,2.46-.13,3.98.04,3.14.25,5.7.38,7.69.36,1.99-.01,4.26-.17,6.81-.48Z"/>
  </g>
  <g>
    <path class="cls-3" d="M176.88,78.46c3.21,0,6.49.31,9.84.93,6.65,1.18,13.28,3.76,19.88,7.73,10.22,6.14,17.39,14.44,21.51,24.87,2.75,7.13,3.82,14.86,3.19,23.2-.68,8.25-2.94,15.56-6.76,21.92-5.64,9.39-13.79,15.91-24.44,19.58-5.16,1.79-10.49,2.68-16,2.68-4.14,0-8.38-.5-12.72-1.51-6.22-1.46-11.95-3.77-17.2-6.93-6.88-4.14-12.6-9.53-17.16-16.17-5.52-8.03-8.32-16.83-8.41-26.41-.11-9.27,2.28-17.98,7.19-26.14,5.69-9.46,13.4-16.2,23.12-20.21,5.72-2.36,11.71-3.54,17.97-3.54M175.71,158.35c1.22,0,2.45-.22,3.7-.67,3.21-1.16,5.93-3.58,8.15-7.28,2.89-4.81,5.24-10.47,7.03-16.97,1.8-6.5,2.65-12.46,2.55-17.88-.05-3.33-.66-6.29-1.81-8.88-1.15-2.59-2.72-4.53-4.7-5.83-1.76-1.06-3.57-1.58-5.44-1.58-1.68,0-3.41.43-5.19,1.29-2.85,1.32-5.2,3.51-7.04,6.57-2.7,4.5-4.91,10.24-6.63,17.25-1.72,7.01-2.57,13.63-2.53,19.88.06,2.69.65,5.16,1.77,7.4,1.12,2.24,2.61,3.92,4.48,5.05,1.85,1.11,3.73,1.67,5.65,1.67M176.88,75.46h0c-6.63,0-13.06,1.27-19.11,3.77-10.28,4.24-18.54,11.46-24.54,21.44-5.17,8.6-7.73,17.93-7.61,27.72.09,10.14,3.1,19.58,8.93,28.08,4.79,6.97,10.87,12.7,18.09,17.04,5.49,3.3,11.57,5.75,18.05,7.28,4.55,1.06,9.06,1.59,13.41,1.59,5.82,0,11.54-.96,16.98-2.85,11.28-3.88,20.04-10.91,26.03-20.87,4.05-6.73,6.46-14.54,7.18-23.22.66-8.77-.48-17.01-3.38-24.53-4.36-11.04-12.01-19.9-22.77-26.36-6.88-4.14-13.91-6.87-20.9-8.11-3.49-.65-6.99-.98-10.36-.98h0ZM166.81,144.2c-.03-5.96.79-12.4,2.44-19.12,1.64-6.68,3.76-12.21,6.29-16.42,1.54-2.56,3.41-4.32,5.73-5.39h.02s.02-.02.02-.02c1.35-.66,2.66-.99,3.88-.99,1.31,0,2.56.37,3.84,1.12,1.48.99,2.65,2.46,3.56,4.51.98,2.2,1.5,4.8,1.55,7.71.09,5.11-.73,10.84-2.44,17.03-1.72,6.21-3.98,11.67-6.71,16.22-1.87,3.12-4.03,5.08-6.6,6-.92.33-1.82.5-2.69.5-1.38,0-2.72-.4-4.1-1.24-1.38-.83-2.48-2.08-3.34-3.81-.91-1.83-1.4-3.88-1.45-6.1h0Z"/>
    <path class="cls-4" d="M206.6,87.12c10.22,6.14,17.39,14.44,21.51,24.87,2.75,7.13,3.82,14.86,3.19,23.2-.68,8.25-2.94,15.56-6.76,21.92-5.64,9.39-13.79,15.91-24.44,19.58-9.03,3.13-18.6,3.52-28.72,1.17-6.22-1.46-11.95-3.77-17.2-6.93-6.88-4.14-12.6-9.53-17.16-16.17-5.52-8.03-8.32-16.83-8.41-26.41-.11-9.27,2.28-17.98,7.19-26.14,5.69-9.46,13.4-16.2,23.12-20.21,8.65-3.57,17.91-4.45,27.81-2.61,6.65,1.18,13.28,3.76,19.88,7.73ZM190.64,100.83c-3.34-2.01-6.88-2.11-10.62-.3-2.85,1.32-5.2,3.51-7.04,6.57-2.7,4.5-4.91,10.24-6.63,17.25-1.72,7.01-2.57,13.63-2.53,19.88.06,2.69.65,5.16,1.77,7.4,1.12,2.24,2.61,3.92,4.48,5.05,3.02,1.82,6.14,2.15,9.35.99,3.21-1.16,5.93-3.58,8.15-7.28,2.89-4.81,5.24-10.47,7.03-16.97,1.8-6.5,2.65-12.46,2.55-17.88-.05-3.33-.66-6.29-1.81-8.88-1.15-2.59-2.72-4.53-4.7-5.83Z"/>
  </g>
  <g>
    <path class="cls-3" d="M231.32,59.51c5.07,0,11.11.29,18.11.88,11.86,1,20.86,2.4,26.99,4.2,2.8.78,4.99,2.05,6.58,3.8,1.59,1.75,2.3,3.66,2.12,5.71-.13,1.58-.94,3.12-2.4,4.64-2.15,2.32-3.27,4.02-3.36,5.11-.18,2.18,1.25,5.81,4.29,10.88,1.98,3.28,3.97,5,5.97,5.17.15.01.29.02.44.02,1.13,0,2.26-.37,3.41-1.11,1.29-.84,3-2.38,5.15-4.64,2.61-2.76,3.99-5.03,4.14-6.78.09-1.09.02-1.92-.2-2.49-.23-.57-1.1-1.95-2.62-4.15-1.09-1.49-1.54-3.42-1.34-5.78.47-5.57,6.89-8.35,19.25-8.35,2.82,0,5.96.15,9.4.44,10.47.88,17.24,1.94,20.31,3.18,1.95.77,3.5,2.07,4.66,3.87,1.16,1.8,1.66,3.68,1.49,5.61-.21,2.48-1.13,4.29-2.74,5.44-1.62,1.14-4.34,1.89-8.14,2.24-3.51.38-6.61,1.44-9.32,3.19-2.71,1.75-7.76,5.98-15.15,12.67-8.98,8.2-14.67,14.32-17.05,18.36-2.38,4.04-3.93,10.23-4.63,18.58-.59,7.02-.87,13.55-.83,19.59,0,3.72.35,6.33,1.08,7.82.73,1.49,2.36,3.05,4.91,4.67,4.22,2.68,6.19,5.73,5.9,9.19-.56,6.59-8.69,9.88-24.39,9.88-3.92,0-8.3-.2-13.16-.61-9.99-.84-19.35-2.61-28.08-5.3-7.37-2.27-10.85-5.82-10.44-10.67.32-3.75,2.84-6.25,7.58-7.5,3.55-.92,5.83-2.28,6.84-4.09,2.29-4.01,4.09-13.8,5.4-29.36.41-4.84.24-8.65-.5-11.43-.74-2.77-2.57-6.45-5.47-11.02-6.09-9.48-12.47-18.09-19.13-25.85-2.89-3.35-5.74-5.7-8.55-7.03-3.99-1.86-6.38-3.19-7.16-3.99-1.57-1.6-2.26-3.6-2.05-6.03.34-4.05,3.64-6.72,9.91-7.99,3.21-.65,7.48-.97,12.81-.97M231.32,56.51h0c-5.5,0-10.01.35-13.4,1.03-9.59,1.94-11.98,6.88-12.3,10.68-.28,3.28.73,6.17,2.9,8.38.78.79,2.34,1.95,8.03,4.6,2.4,1.14,4.95,3.25,7.54,6.27,6.53,7.61,12.89,16.19,18.88,25.51,2.72,4.28,4.44,7.71,5.1,10.18.65,2.43.79,5.93.41,10.4-1.58,18.74-3.6,25.64-5.02,28.12-.34.62-1.43,1.75-4.98,2.67-7.58,1.99-9.52,6.62-9.82,10.15-.37,4.41,1.5,10.39,12.55,13.78,8.9,2.74,18.56,4.56,28.71,5.42,4.92.41,9.43.63,13.41.63,6.51,0,26.31,0,27.37-12.63.39-4.63-2.06-8.66-7.28-11.97-2.7-1.71-3.55-2.89-3.82-3.45-.24-.49-.79-2.09-.78-6.5-.04-5.95.24-12.45.82-19.35.66-7.86,2.08-13.69,4.23-17.31,2.22-3.76,7.77-9.71,16.49-17.67,7.22-6.54,12.19-10.7,14.76-12.36,2.3-1.48,4.99-2.4,8.01-2.73,4.34-.4,7.48-1.31,9.55-2.77,2.37-1.67,3.72-4.24,4-7.64.22-2.6-.44-5.12-1.96-7.49-1.5-2.34-3.55-4.03-6.07-5.03-3.37-1.36-10.3-2.46-21.16-3.38-3.51-.3-6.76-.45-9.66-.45-14.13,0-21.62,3.73-22.24,11.1-.26,3.08.37,5.69,1.88,7.77,1.74,2.53,2.18,3.32,2.27,3.52.02.09.07.41,0,1.14-.03.37-.36,1.84-3.33,4.98-2.45,2.58-3.85,3.7-4.6,4.18-.65.42-1.23.63-1.77.63-.06,0-.12,0-.18,0-.71-.06-2.05-1.07-3.65-3.73-3.61-6.01-3.9-8.33-3.88-9,.07-.2.51-1.17,2.55-3.38,1.94-2.02,3.02-4.19,3.21-6.45.24-2.87-.76-5.63-2.89-7.98-1.97-2.17-4.66-3.74-7.99-4.67-6.26-1.84-15.54-3.28-27.55-4.3-7.04-.59-13.22-.9-18.36-.9h0Z"/>
    <path class="cls-6" d="M249.42,60.4c11.86,1,20.86,2.4,26.99,4.2,2.8.78,4.99,2.05,6.58,3.8,1.59,1.75,2.3,3.66,2.12,5.71-.13,1.58-.94,3.12-2.4,4.64-2.15,2.32-3.27,4.02-3.36,5.11-.18,2.18,1.25,5.81,4.29,10.88,1.98,3.28,3.97,5,5.97,5.17,1.27.11,2.55-.25,3.84-1.09,1.29-.84,3-2.38,5.15-4.64,2.61-2.76,3.99-5.03,4.14-6.78.09-1.09.02-1.92-.2-2.49s-1.1-1.95-2.62-4.15c-1.09-1.49-1.54-3.42-1.34-5.78.58-6.84,10.13-9.48,28.65-7.92,10.47.88,17.24,1.94,20.31,3.18,1.95.77,3.5,2.07,4.66,3.87,1.16,1.8,1.66,3.68,1.49,5.61-.21,2.48-1.13,4.29-2.74,5.44-1.62,1.14-4.34,1.89-8.14,2.24-3.51.38-6.61,1.44-9.32,3.19-2.71,1.75-7.76,5.98-15.15,12.67-8.98,8.2-14.67,14.32-17.05,18.36-2.38,4.04-3.93,10.23-4.63,18.58-.59,7.02-.87,13.55-.83,19.59,0,3.72.35,6.33,1.08,7.82.73,1.49,2.36,3.05,4.91,4.67,4.22,2.68,6.19,5.73,5.9,9.19-.69,8.23-13.21,11.32-37.54,9.27-9.99-.84-19.35-2.61-28.08-5.3-7.37-2.27-10.85-5.82-10.44-10.67.32-3.75,2.84-6.25,7.58-7.5,3.55-.92,5.83-2.28,6.84-4.09,2.29-4.01,4.09-13.8,5.4-29.36.41-4.84.24-8.65-.5-11.43-.74-2.77-2.57-6.45-5.47-11.02-6.09-9.48-12.47-18.09-19.13-25.85-2.89-3.35-5.74-5.7-8.55-7.03-3.99-1.86-6.38-3.19-7.16-3.99-1.57-1.6-2.26-3.6-2.05-6.03.34-4.05,3.64-6.72,9.91-7.99,6.26-1.27,16.57-1.3,30.92-.09Z"/>
  </g>
  <g>
    <path class="cls-1" d="M384.84,202.57c-4.51,0-9.33-.49-14.33-1.46-6.39-1.23-13.06-3.32-19.84-6.2-6.96-2.96-11.73-5.75-14.6-8.52-2.33-2.3-3.92-6.35-4.85-12.41-.9-5.81-.85-11.38.15-16.56.53-2.75,1.55-4.78,3.04-6.05,1.47-1.28,3.13-1.94,4.92-1.94.48,0,.97.05,1.46.14,2.3.44,4.27,2,5.85,4.63.86,1.34,2.64,5.29,5.41,12.05,1.17,2.83,3.48,5.5,6.85,7.91,3.42,2.45,7.19,4.09,11.2,4.86,1.48.29,2.88.43,4.15.43,1.61,0,3.06-.23,4.32-.69,2.02-.73,3.14-1.86,3.45-3.43.29-1.52-.15-2.94-1.35-4.37-1.37-1.62-3.87-3.4-7.44-5.31-6.67-3.6-11.77-6.75-15.16-9.35-3.43-2.63-6.55-5.75-9.28-9.26-6.71-8.73-9.21-17.81-7.44-26.99.88-4.55,2.82-8.83,5.76-12.72,2.94-3.89,6.68-7.07,11.13-9.45,6.91-3.84,14.52-5.79,22.6-5.79,3.46,0,7.07.36,10.74,1.07,5.2,1,11.82,3.62,19.67,7.77.98.52,1.56.69,1.86.75,0,0,.08,0,.11,0,.44,0,1.51-.08,4.07-.48.45-.08.92-.12,1.4-.12.56,0,1.14.06,1.71.17,3.85.74,7.13,4.25,10.04,10.72,2.78,6.2,3.7,11.89,2.73,16.91-.6,3.12-2.07,5.61-4.38,7.41-1.83,1.43-3.83,2.16-5.94,2.16-.61,0-1.23-.06-1.85-.18-2.25-.43-4.04-1.27-5.33-2.5-1.15-1.09-3.43-3.97-6.96-8.8-4.6-6.32-9.63-10.04-14.93-11.07-.85-.16-1.67-.25-2.42-.25-1.36,0-2.57.28-3.6.82-1.5.8-2.39,2.02-2.72,3.73-.68,3.54,2.23,6.99,8.66,10.25,9.79,5.06,15.85,8.5,18.55,10.5,11.85,8.88,16.63,19.69,14.23,32.13-2.11,10.94-8.38,19.12-18.63,24.32-6.76,3.42-14.5,5.16-23,5.16Z"/>
    <path class="cls-3" d="M380.82,93.59c3.38,0,6.87.35,10.46,1.04,5.08.98,11.49,3.52,19.25,7.63.93.49,1.69.79,2.28.9.09.02.22.03.39.03.73,0,2.16-.17,4.31-.5.39-.07.78-.1,1.17-.1.47,0,.95.05,1.43.14,3.3.64,6.29,3.93,8.96,9.86,2.66,5.94,3.54,11.27,2.63,16.01-.53,2.76-1.81,4.94-3.83,6.51-1.57,1.23-3.24,1.84-5.01,1.84-.51,0-1.04-.05-1.57-.15-1.97-.38-3.5-1.08-4.58-2.11-1.08-1.03-3.34-3.89-6.78-8.6-4.85-6.66-10.14-10.55-15.86-11.66-.95-.18-1.85-.28-2.71-.28-1.62,0-3.05.33-4.3,1-1.91,1.01-3.07,2.6-3.49,4.77-.83,4.29,2.32,8.25,9.45,11.88,9.63,4.98,15.74,8.44,18.33,10.37,11.4,8.54,15.95,18.76,13.65,30.64-2.03,10.51-7.97,18.26-17.84,23.26-6.58,3.33-14.02,5-22.32,5-4.44,0-9.12-.48-14.05-1.43-6.31-1.22-12.83-3.26-19.54-6.11-6.71-2.86-11.43-5.59-14.15-8.22-2.06-2.04-3.53-5.89-4.41-11.56-.88-5.67-.83-11.02.14-16.05.47-2.41,1.31-4.15,2.54-5.19,1.21-1.06,2.53-1.58,3.95-1.58.38,0,.77.04,1.17.12,1.87.36,3.49,1.67,4.84,3.93.83,1.28,2.6,5.23,5.31,11.84,1.29,3.12,3.75,5.97,7.36,8.56,3.62,2.59,7.55,4.3,11.79,5.11,1.59.31,3.07.46,4.44.46,1.79,0,3.4-.26,4.83-.78,2.53-.92,4-2.44,4.41-4.56.38-1.97-.18-3.84-1.68-5.62-1.5-1.77-4.13-3.66-7.89-5.67-6.63-3.58-11.61-6.65-14.95-9.22-3.34-2.56-6.34-5.56-9.01-8.99-6.46-8.41-8.84-17-7.15-25.78.84-4.34,2.66-8.37,5.48-12.1,2.82-3.73,6.37-6.74,10.64-9.03,6.73-3.74,14.03-5.62,21.89-5.62M380.83,90.59h0c-8.34,0-16.2,2.02-23.35,6-4.6,2.47-8.51,5.79-11.58,9.85-3.08,4.08-5.11,8.57-6.03,13.34-1.86,9.62.74,19.1,7.72,28.18,2.82,3.63,6.03,6.84,9.56,9.54,3.45,2.65,8.62,5.84,15.35,9.47,4.25,2.27,6.16,3.95,7.02,4.96,1.17,1.39,1.16,2.39,1.02,3.11-.09.45-.29,1.51-2.49,2.31-1.1.4-2.38.6-3.81.6-1.18,0-2.48-.14-3.87-.4-3.79-.73-7.36-2.28-10.61-4.61-3.14-2.25-5.27-4.69-6.34-7.27-3.69-8.98-4.93-11.33-5.53-12.28-1.8-2.98-4.1-4.76-6.82-5.29-.58-.11-1.17-.17-1.74-.17-2.16,0-4.15.78-5.92,2.32-1.72,1.47-2.91,3.79-3.51,6.88-1.03,5.35-1.09,11.09-.16,17.08.98,6.38,2.71,10.71,5.27,13.23,3.03,2.93,7.95,5.81,15.08,8.84,6.88,2.93,13.65,5.04,20.15,6.3,5.09.98,10.01,1.48,14.62,1.48,8.74,0,16.71-1.79,23.68-5.32,10.69-5.42,17.23-13.96,19.43-25.37,2.52-13.05-2.46-24.36-14.8-33.61-2.77-2.06-8.9-5.54-18.76-10.63-3.98-2.02-8.55-5.16-7.88-8.64.25-1.28.85-2.11,1.95-2.69.82-.43,1.77-.65,2.9-.65.66,0,1.38.07,2.14.22,4.92.95,9.63,4.47,14,10.48,4.78,6.53,6.36,8.27,7.14,9.01,1.49,1.42,3.54,2.39,6.08,2.88.72.14,1.43.21,2.13.21,2.45,0,4.76-.83,6.86-2.48,2.6-2.03,4.25-4.82,4.92-8.31,1.03-5.33.07-11.32-2.84-17.8-3.12-6.95-6.76-10.74-11.12-11.58-.67-.13-1.34-.19-2-.19-.56,0-1.12.05-1.67.14-2.47.38-3.41.45-3.74.46-.19-.05-.61-.2-1.35-.58-8.08-4.28-14.65-6.87-20.07-7.92-3.76-.73-7.47-1.09-11.02-1.09h0Z"/>
  </g>
  <g>
    <path class="cls-4" d="M622.86,214.95c-9.83,0-15.14-2.96-15.79-8.8-.22-1.99.12-3.56,1-4.67.48-.59,1.57-1.67,5.52-4.14,1.5-.89,2.39-1.9,2.77-3.09.3-.96.66-3.19.64-8.34.01-4.53-.33-12.08-1.01-22.44-.68-10.35-1.44-19.31-2.25-26.65-.99-9.01-2.35-15.08-4.02-18.03-.51-.87-1.05-1.5-1.58-1.87-.42-.29-1.39-.81-3.62-1.63-4.79-1.68-7.44-4.4-7.85-8.08-.26-2.36.39-4.63,1.94-6.75,1.49-2.04,3.6-3.61,6.29-4.67,2.45-1.03,5.83-2.07,10-3.08,4.16-1.01,7.77-1.69,10.71-2.01,3.54-.39,6.65-.59,9.24-.59,2.9,0,5.17.24,6.94.72,1.75.46,3.23,1.22,4.36,2.25,1.06.97,2.55,2.87,4.56,5.83l21.32,30.68c2.94,4.26,4.07,5.49,4.48,5.84.42.36.92.53,1.58.53.15,0,.31,0,.48-.03.75-.08,1.35-.43,1.9-1.08.47-.56,1.25-1.84,2.34-4.69l9.44-24.77c1.14-3.16,1.89-5.23,2.25-6.19,2.26-6.28,4.7-10.49,7.44-12.86,3.46-3.05,9.79-5.05,19.33-6.11,3.17-.35,6.1-.53,8.69-.53,11.4,0,17.55,3.43,18.3,10.19.21,1.93,0,3.57-.64,4.89-.61,1.25-1.84,2.72-3.77,4.49-2.11,2.01-3.27,4.69-3.51,8.15-.43,7.84-.03,17.47,1.19,28.59,1.58,14.36,3.67,27.04,6.21,37.69.75,3.1,1.46,4.22,1.82,4.61.39.42,1.63,1.43,5.55,3.42,2.63,1.37,4.18,3.54,4.48,6.29.52,4.69-2.14,8.34-7.89,10.85-2.69,1.24-5.63,2.2-8.71,2.83-3.01.62-7.71,1.29-13.99,1.98-5.37.59-10.08.89-14,.89-3.16,0-5.9-.2-8.13-.58-6.11-1.08-9.46-3.87-9.94-8.29-.19-1.69.1-3.18.86-4.42.66-1.07,2.23-2.87,4.96-5.67,1.06-1.07,1.7-3.23,1.84-6.26.16-3.37-.21-9.18-1.1-17.24-.6-5.46-1.16-7.61-1.52-8.46-.37-.87-.79-.94-1.15-.94-.07,0-.15,0-.23.01-1.06.12-2.09,1.12-3.08,3-1.19,2.26-2.91,6.83-5.11,13.58l-7.7,24.05c-1.39,4.23-2.56,7.04-3.57,8.62-1.19,1.85-2.69,2.88-4.46,3.08-.21.02-.42.03-.63.03-1.45,0-2.81-.56-4.04-1.66-.54-.47-1.66-1.75-5.38-7.31-2.72-4.06-5.04-7.76-6.9-10.97l-14.04-24.07c-2.08-3.63-3.4-4.02-3.87-4.02-.04,0-.07,0-.11,0-.33.04-1.32.15-1.15,3.28.34,6.71.83,12.95,1.45,18.56.63,5.75,1.33,9.64,2.08,11.54.39.87.86,1.54,1.33,1.87.35.24,1.49.86,5.35,2.31,1.75.67,3.92,2.25,4.33,5.96.82,7.43-7.27,11.97-24.74,13.9-2.75.3-5.28.46-7.52.46Z"/>
    <path class="cls-3" d="M729.96,81.21c10.56,0,16.16,2.95,16.81,8.85.18,1.65.01,3.01-.5,4.07-.52,1.06-1.66,2.41-3.44,4.05-2.39,2.28-3.73,5.33-3.99,9.15-.44,7.99-.04,17.6,1.2,28.86,1.6,14.49,3.68,27.12,6.25,37.88.64,2.64,1.36,4.39,2.18,5.28.82.89,2.81,2.14,5.98,3.74,2.2,1.14,3.42,2.85,3.67,5.12.44,3.98-1.89,7.08-7,9.31-2.63,1.21-5.43,2.12-8.41,2.74s-7.6,1.27-13.85,1.96c-5.34.59-9.96.88-13.83.88-3.09,0-5.71-.19-7.87-.56-5.4-.96-8.3-3.28-8.71-6.98-.15-1.36.07-2.52.65-3.48.58-.96,2.17-2.75,4.75-5.4,1.35-1.36,2.1-3.77,2.26-7.24.16-3.47-.21-9.3-1.11-17.48-.5-4.55-1.04-7.51-1.63-8.88-.53-1.24-1.37-1.86-2.53-1.86-.13,0-.26,0-.39.02-1.59.18-3,1.44-4.24,3.79-1.24,2.35-2.97,6.96-5.21,13.82l-7.7,24.06c-1.34,4.06-2.47,6.82-3.4,8.27-.93,1.45-2.05,2.25-3.36,2.4-.16.02-.31.03-.46.03-1.08,0-2.09-.43-3.04-1.28-.7-.61-2.41-2.96-5.13-7.03-2.72-4.07-5-7.7-6.85-10.89l-14.04-24.08c-1.82-3.18-3.54-4.76-5.17-4.76-.09,0-.18,0-.27.01-1.82.2-2.65,1.82-2.49,4.85.34,6.75.83,12.97,1.45,18.65.65,5.91,1.38,9.89,2.18,11.92.53,1.21,1.16,2.06,1.88,2.55.72.5,2.6,1.32,5.67,2.48,1.98.76,3.1,2.33,3.37,4.72.7,6.36-7.1,10.45-23.41,12.24-2.7.3-5.16.45-7.35.45-8.98,0-13.75-2.49-14.3-7.46-.18-1.59.05-2.78.68-3.57.63-.79,2.35-2.06,5.15-3.8,1.78-1.06,2.92-2.36,3.41-3.91.49-1.55.73-4.48.71-8.79.01-4.6-.33-12.11-1.02-22.54-.69-10.42-1.44-19.33-2.25-26.71-1.02-9.26-2.43-15.46-4.21-18.6-.64-1.08-1.31-1.87-2.03-2.36-.72-.49-2.03-1.1-3.95-1.81-4.25-1.48-6.54-3.77-6.88-6.83-.22-1.99.33-3.89,1.66-5.7,1.32-1.81,3.2-3.2,5.62-4.16,2.42-1.01,5.69-2.02,9.8-3.02,4.12-1,7.62-1.66,10.52-1.98,3.51-.39,6.53-.58,9.08-.58,2.74,0,4.92.22,6.55.67,1.54.41,2.79,1.04,3.75,1.92.96.87,2.4,2.73,4.32,5.56l21.33,30.69c2.33,3.37,3.9,5.41,4.73,6.12.69.6,1.54.89,2.56.89.21,0,.42-.01.64-.04,1.14-.13,2.1-.66,2.89-1.61.79-.95,1.65-2.65,2.58-5.12l9.43-24.77c1.15-3.17,1.89-5.24,2.25-6.2,2.16-5.99,4.5-10.07,7.02-12.25,3.2-2.82,9.37-4.74,18.52-5.75,3.13-.35,5.97-.52,8.53-.52M729.96,78.21c-2.65,0-5.63.18-8.86.54-9.87,1.09-16.47,3.21-20.18,6.48-2.92,2.52-5.5,6.94-7.85,13.48-.35.93-1.1,3-2.24,6.17l-9.43,24.74c-1.07,2.81-1.77,3.88-2.09,4.27-.36.43-.65.52-.9.54-.11.01-.22.02-.31.02-.41,0-.53-.11-.59-.16-.23-.2-1.2-1.17-4.23-5.56l-21.33-30.7c-2.08-3.07-3.6-5.01-4.77-6.07-1.32-1.2-3-2.07-5.01-2.6-1.88-.51-4.28-.77-7.31-.77-2.64,0-5.81.2-9.41.6-3.01.33-6.68,1.02-10.9,2.05-4.3,1.05-7.64,2.08-10.23,3.16-2.94,1.17-5.27,2.9-6.92,5.17-1.77,2.43-2.52,5.06-2.22,7.8.33,2.96,2.13,6.97,8.84,9.33,2.25.83,3.03,1.29,3.27,1.45.19.13.61.5,1.15,1.42,1.06,1.86,2.6,6.44,3.81,17.41.81,7.31,1.56,16.25,2.24,26.58.68,10.32,1.02,17.84,1.01,22.33.02,5.24-.35,7.19-.57,7.9-.26.83-.94,1.56-2.08,2.24l-.03.02-.03.02c-4.1,2.56-5.31,3.74-5.9,4.47-1.15,1.43-1.59,3.37-1.33,5.77.51,4.62,3.92,10.14,17.28,10.14,2.3,0,4.88-.16,7.68-.47,8.61-.95,14.87-2.5,19.15-4.73,6.34-3.32,7.26-7.71,6.92-10.82-.38-3.48-2.26-6.03-5.27-7.19-4.04-1.53-4.9-2.06-5.03-2.15-.04-.03-.38-.28-.82-1.24-.48-1.26-1.21-4.21-1.97-11.1-.62-5.6-1.1-11.81-1.44-18.47-.04-.7,0-1.17.05-1.48.43.34,1.21,1.15,2.28,3.03l14.05,24.1c1.87,3.24,4.21,6.96,6.95,11.05,3.78,5.66,4.95,7.01,5.65,7.62,1.48,1.33,3.18,2.02,5.02,2.02.26,0,.53-.01.79-.04,1.54-.17,3.76-.96,5.56-3.76,1.08-1.68,2.3-4.61,3.73-8.95l7.71-24.08c2.17-6.66,3.85-11.15,5-13.33.72-1.36,1.36-1.99,1.75-2.16.22.52.77,2.33,1.4,8.02.88,7.99,1.25,13.71,1.09,17.01-.17,3.66-1.04,4.9-1.4,5.27-3.67,3.75-4.69,5.15-5.18,5.95-.94,1.54-1.3,3.34-1.07,5.37.39,3.55,2.65,8.09,11.16,9.6,2.33.4,5.15.61,8.4.61,3.97,0,8.73-.3,14.16-.9,6.4-.71,11.02-1.36,14.13-2,3.18-.66,6.22-1.65,9.03-2.94,7.97-3.5,9.16-8.66,8.75-12.38-.36-3.27-2.18-5.85-5.27-7.45-4.08-2.07-5-2.95-5.15-3.11-.07-.08-.72-.85-1.47-3.96-2.52-10.58-4.6-23.2-6.18-37.5-1.22-11.03-1.61-20.58-1.18-28.36.21-3.02,1.21-5.37,3.05-7.13,2.06-1.9,3.4-3.51,4.08-4.93.76-1.57,1.03-3.49.78-5.7-.58-5.26-4.48-11.53-19.79-11.53h0Z"/>
  </g>
  <g>
    <path class="cls-6" d="M776.68,182.71c-5.66,0-10.1-.4-13.22-1.17-4.29-1.12-6.63-3.98-6.79-8.29-.07-1.97.4-3.57,1.41-4.77.93-1.1,2.5-2.08,4.79-2.98,3.02-1.19,5.29-2.8,6.76-4.76,1.56-2.08,3.8-6.67,6.67-13.63l9.99-24.22c3.65-8.79,6.09-15.44,7.27-19.74,1.16-4.23,1.7-8.41,1.6-12.4-.12-4.6.05-7.75.51-9.64.49-1.99,1.65-3.96,3.46-5.85,3.66-4,8.51-6.14,14.4-6.36.26,0,.52-.01.79-.01,5.26,0,10.41,1.98,15.31,5.88,7.01,5.49,17.11,21.16,30.87,47.92l15.72,30.69c1.74,3.3,2.78,4.6,3.35,5.11.72.65,1.9,1.08,3.49,1.28,5.96.69,6.99,4.59,7.07,6.86.11,3.05-1.08,7.22-7.42,9.79-4.67,1.9-12.07,3.01-22.62,3.4-4.15.15-7.98.23-11.37.23-6.13,0-11.1-.25-14.77-.75-2.88-.41-5.23-1.4-7.01-2.94-1.89-1.63-2.89-3.69-2.98-6.12-.07-1.93.41-3.5,1.43-4.67.94-1.07,2.56-2.03,4.95-2.93,2.27-.87,2.53-1.97,2.5-2.84-.07-1.8-.71-3.93-5.14-4.42-2.62-.26-5.96-.4-9.91-.4-2.63,0-5.59.06-8.79.18-8.87.33-10.95,1.11-11.44,1.44-.54.36-1.06,1.12-1.5,2.18-.48,1.15-.71,2.25-.67,3.26.02.64.12.94.17,1.04.22.11,1.05.47,3.82,1.24,4.8,1.22,5.92,4.36,6,6.77.09,2.55-.89,6.09-6.11,8.5-3.82,1.76-9.37,2.76-16.97,3.04-1.98.07-3.87.11-5.61.11ZM811.65,114.35c-1.5.06-2.56,2.71-3.06,4.29l-.04.1c-.13.32-.58,1.54-2.02,5.51-2.64,7.15-2.81,8.67-2.8,8.96,0,.06.31.36,1.68.36.12,0,.25,0,.38,0l15.11-.56c1.87-.07,2.49-.4,2.65-.51-.06-.74-.82-3.26-6.01-11.47-1.8-2.87-3.16-4.78-4.04-5.7-.63-.65-1.23-.98-1.8-.98h-.06Z"/>
    <path class="cls-3" d="M814.31,70.38c4.93,0,9.72,1.85,14.37,5.55,6.78,5.31,16.94,21.12,30.47,47.43l15.72,30.69c1.49,2.83,2.72,4.68,3.68,5.54.96.87,2.39,1.42,4.31,1.66,3.72.43,5.64,2.24,5.76,5.42.14,3.75-2.02,6.53-6.49,8.35s-11.83,2.91-22.11,3.29c-4.15.15-7.93.23-11.31.23-6.09,0-10.94-.25-14.57-.74-2.59-.37-4.66-1.23-6.23-2.59-1.57-1.36-2.39-3.04-2.46-5.04-.06-1.54.3-2.75,1.06-3.63.77-.88,2.21-1.71,4.35-2.51,2.39-.91,3.54-2.34,3.47-4.3-.13-3.44-2.28-5.4-6.47-5.86-2.7-.27-6.06-.41-10.07-.41-2.66,0-5.61.06-8.85.18-6.84.25-10.91.82-12.21,1.69-.8.54-1.49,1.5-2.06,2.86-.57,1.36-.83,2.66-.78,3.89.04,1.13.29,1.86.74,2.17.45.32,1.9.82,4.34,1.5,3.17.81,4.8,2.6,4.91,5.38.23,6.12-6.99,9.44-21.63,9.98-1.98.07-3.83.11-5.56.11-5.56,0-9.84-.38-12.85-1.13-3.64-.95-5.52-3.24-5.66-6.89-.06-1.59.29-2.84,1.06-3.74.76-.9,2.16-1.75,4.19-2.55,3.3-1.31,5.77-3.06,7.41-5.25,1.64-2.19,3.93-6.85,6.86-13.96l9.99-24.22c3.69-8.89,6.13-15.52,7.33-19.92,1.2-4.39,1.75-8.67,1.65-12.84-.11-4.42.04-7.5.47-9.24.42-1.74,1.45-3.46,3.09-5.17,3.41-3.73,7.87-5.69,13.37-5.9.24,0,.49-.01.73-.01M805.42,135.07c.14,0,.29,0,.44,0l15.11-.56c2.78-.1,4.14-.77,4.09-2-.06-1.7-2.14-5.79-6.24-12.28-1.86-2.97-3.27-4.95-4.23-5.94-.93-.96-1.89-1.44-2.87-1.44-.04,0-.08,0-.11,0-1.85.07-3.33,1.85-4.44,5.34-.19.47-.87,2.32-2.03,5.56-1.97,5.32-2.93,8.5-2.89,9.52.04,1.2,1.1,1.8,3.18,1.8M814.31,67.38c-.28,0-.56,0-.84.02-6.29.23-11.49,2.53-15.45,6.84-1.98,2.08-3.27,4.27-3.81,6.51-.49,2.02-.67,5.3-.55,10.03.09,3.85-.43,7.88-1.54,11.97-1.16,4.25-3.59,10.83-7.21,19.56l-9.99,24.23c-3.51,8.53-5.47,11.94-6.49,13.3-1.3,1.74-3.36,3.17-6.11,4.26-2.52.99-4.28,2.1-5.38,3.4-1.26,1.49-1.85,3.44-1.77,5.79.18,4.97,2.99,8.41,7.9,9.69,3.31.83,7.75,1.23,13.61,1.23,1.76,0,3.67-.04,5.67-.11,7.8-.29,13.53-1.33,17.54-3.17,5.97-2.75,7.09-6.91,6.98-9.92-.09-2.39-1.13-6.62-7.13-8.16-1.47-.41-2.35-.69-2.85-.87,0,0,0,0,0-.01-.03-.79.16-1.67.55-2.62.43-1.04.81-1.4.94-1.5.35-.17,2.29-.89,10.67-1.2,3.19-.12,6.13-.18,8.74-.18,3.9,0,7.18.13,9.77.39,3.68.41,3.73,1.96,3.77,2.99.01.27.03.78-1.54,1.38-2.65,1-4.42,2.06-5.54,3.35-1.28,1.47-1.89,3.39-1.8,5.71.1,2.82,1.31,5.31,3.5,7.2,2,1.73,4.62,2.84,7.77,3.29,3.76.51,8.79.77,14.99.77,3.41,0,7.25-.08,11.43-.23,10.73-.4,18.3-1.54,23.13-3.5,7.14-2.9,8.49-7.71,8.36-11.24-.17-4.67-3.24-7.69-8.41-8.29-1.66-.21-2.37-.65-2.64-.9-.32-.28-1.24-1.31-3.04-4.71l-15.71-30.65c-13.86-26.96-24.09-42.8-31.29-48.43-5.15-4.1-10.62-6.19-16.22-6.19h0ZM805.49,132.07c.31-1.14.98-3.29,2.45-7.29,1.44-3.99,1.89-5.18,2-5.48l.04-.1.03-.11c.9-2.84,1.72-3.25,1.72-3.25,0,0,.26.1.68.53.56.58,1.68,2,3.85,5.45,3.45,5.46,4.85,8.25,5.41,9.63-.23.02-.5.04-.83.06l-15.11.56c-.09,0-.17,0-.26,0h0Z"/>
  </g>
  <g>
    <path class="cls-2" d="M943.92,188.01c-3.49,0-7.18-.26-10.97-.77-6.62-.9-13.58-2.66-20.69-5.22-7.29-2.63-12.34-5.21-15.44-7.89-2.51-2.22-4.36-6.28-5.67-12.42-1.25-5.9-1.52-11.61-.79-16.97.39-2.84,1.31-4.97,2.75-6.35,1.54-1.5,3.34-2.27,5.32-2.27.35,0,.71.02,1.08.07,2.37.32,4.47,1.8,6.23,4.39.96,1.32,3.01,5.27,6.23,12.04,1.37,2.85,3.89,5.45,7.49,7.73,3.66,2.32,7.62,3.78,11.78,4.35,1.14.15,2.24.23,3.25.23h0c2.08,0,3.91-.33,5.44-.99,2.04-.87,3.14-2.1,3.36-3.75.21-1.58-.32-3.03-1.65-4.43-1.5-1.58-4.17-3.28-7.95-5.03-7.04-3.31-12.45-6.24-16.07-8.71-3.66-2.5-7.04-5.51-10.04-8.96-7.37-8.56-10.45-17.71-9.16-27.21.64-4.71,2.38-9.2,5.17-13.36,2.79-4.15,6.44-7.62,10.86-10.31,7.67-4.85,16.36-7.31,25.81-7.31,2.61,0,5.33.19,8.07.56,5.39.73,12.32,3.03,20.59,6.84,1.04.47,1.65.63,1.97.67.31,0,1.29-.1,4.27-.74.61-.14,1.27-.21,1.92-.21.42,0,.84.03,1.26.09,3.97.54,7.53,3.94,10.88,10.39,3.2,6.19,4.47,11.96,3.76,17.15-.44,3.22-1.8,5.85-4.05,7.82-1.93,1.7-4.11,2.56-6.47,2.56-.45,0-.91-.03-1.37-.09-2.33-.32-4.2-1.07-5.59-2.25-1.24-1.05-3.74-3.87-7.63-8.62-5.09-6.22-10.46-9.76-15.97-10.5-.65-.09-1.29-.13-1.88-.13-1.67,0-3.11.36-4.29,1.07-1.5.91-2.35,2.22-2.59,4.01-.5,3.68,2.69,7.07,9.48,10.06,10.32,4.63,16.73,7.8,19.61,9.7,12.64,8.42,18.16,19.21,16.41,32.09-1.54,11.32-7.49,20.05-17.69,25.96-7.69,4.45-16.8,6.71-27.07,6.71Z"/>
    <path class="cls-3" d="M940.29,76.38c2.56,0,5.18.18,7.87.55,5.26.71,11.99,2.95,20.17,6.72.98.45,1.78.71,2.39.79.06,0,.12.01.2.01.66,0,2.19-.26,4.58-.77.52-.12,1.06-.18,1.61-.18.35,0,.7.02,1.06.07,3.42.46,6.67,3.67,9.74,9.6,3.07,5.93,4.28,11.35,3.61,16.26-.39,2.86-1.57,5.16-3.55,6.9-1.66,1.46-3.49,2.18-5.48,2.18-.38,0-.77-.03-1.17-.08-2.04-.28-3.65-.91-4.82-1.9-1.17-.99-3.65-3.8-7.44-8.43-5.36-6.55-11-10.24-16.93-11.04-.72-.1-1.42-.15-2.08-.15-1.96,0-3.64.43-5.06,1.29-1.9,1.15-3,2.85-3.31,5.09-.6,4.45,2.85,8.32,10.37,11.63,10.16,4.55,16.62,7.75,19.39,9.58,12.17,8.11,17.42,18.32,15.75,30.63-1.48,10.89-7.13,19.17-16.96,24.87-7.49,4.34-16.26,6.5-26.32,6.5-3.44,0-7.03-.25-10.76-.76-6.54-.89-13.34-2.6-20.38-5.15-7.05-2.54-12.04-5.08-14.97-7.61-2.23-1.97-3.96-5.83-5.18-11.59-1.22-5.76-1.48-11.25-.77-16.46.34-2.5,1.11-4.33,2.3-5.46,1.27-1.24,2.7-1.86,4.29-1.86.29,0,.58.02.87.06,1.94.26,3.67,1.51,5.19,3.75.92,1.27,2.96,5.22,6.12,11.84,1.5,3.12,4.18,5.9,8.04,8.35,3.86,2.45,7.98,3.97,12.38,4.57,1.21.16,2.37.25,3.45.25,2.3,0,4.31-.37,6.03-1.11,2.54-1.09,3.96-2.73,4.26-4.93.28-2.04-.4-3.93-2.04-5.66-1.64-1.73-4.44-3.52-8.41-5.36-7-3.29-12.28-6.16-15.85-8.59s-6.82-5.34-9.75-8.7c-7.1-8.25-10.04-16.92-8.8-26.02.61-4.5,2.25-8.74,4.93-12.72,2.67-3.98,6.14-7.27,10.4-9.87,7.48-4.73,15.83-7.09,25.03-7.09M940.29,73.38h0c-9.74,0-18.7,2.54-26.63,7.56-4.57,2.79-8.38,6.41-11.28,10.73-2.92,4.35-4.74,9.06-5.41,13.99-1.35,9.94,1.85,19.49,9.5,28.38,3.09,3.55,6.56,6.65,10.33,9.22,3.69,2.51,9.16,5.48,16.27,8.83,4.5,2.09,6.56,3.71,7.51,4.7,1.3,1.38,1.35,2.43,1.25,3.2-.07.48-.22,1.61-2.47,2.57-1.34.57-2.97.87-4.85.87-.95,0-1.97-.07-3.05-.22-3.94-.53-7.7-1.92-11.17-4.13-3.36-2.13-5.7-4.53-6.95-7.12-4.29-8.99-5.7-11.32-6.37-12.26-2.01-2.94-4.44-4.62-7.24-5-.43-.06-.86-.09-1.28-.09-2.36,0-4.56.94-6.38,2.71-1.67,1.59-2.75,4.02-3.18,7.21-.75,5.53-.48,11.42.81,17.49,1.37,6.47,3.38,10.79,6.13,13.22,3.26,2.82,8.47,5.49,15.94,8.19,7.21,2.6,14.28,4.39,21,5.3,3.85.52,7.61.79,11.17.79,10.54,0,19.9-2.32,27.82-6.91,10.63-6.16,16.83-15.26,18.43-27.06,1.83-13.49-3.91-24.78-17.06-33.53-2.95-1.95-9.43-5.16-19.82-9.82-6.13-2.7-9.02-5.55-8.62-8.49.18-1.35.76-2.25,1.89-2.93.95-.57,2.1-.85,3.51-.85.52,0,1.09.04,1.68.12,5.12.69,10.17,4.05,15.01,9.97,5.27,6.42,6.99,8.11,7.83,8.82,1.6,1.36,3.74,2.23,6.35,2.59.53.07,1.05.11,1.57.11,2.73,0,5.24-.99,7.46-2.93,2.53-2.22,4.06-5.16,4.55-8.75.75-5.51-.57-11.58-3.92-18.04-3.59-6.92-7.51-10.58-12.01-11.19-.49-.07-.98-.1-1.46-.1-.77,0-1.53.09-2.27.25-2.62.56-3.55.67-3.83.69-.21-.04-.65-.17-1.44-.53-8.52-3.92-15.39-6.2-21.01-6.96-2.81-.38-5.59-.57-8.27-.57h0Z"/>
  </g>
  <rect class="cls-3" x="474.52" y="102.36" width="77.15" height="77.15"/>
  <g>
    <path class="cls-5" d="M586.56,247.02c-4.77,0-10.14-.19-15.97-.58-19.68-1.3-34.45-3.12-43.89-5.41-4.58-1.14-8.22-3.12-10.82-5.89-2.7-2.87-3.94-6.26-3.69-10.07.2-3,1.17-5.33,2.9-6.95,1.64-1.53,4.4-2.79,8.42-3.85,4.69-1.26,5.38-3.63,5.49-5.3.33-5.09-2.44-8.1-8.73-9.46-7.4-1.52-18.07-2.75-31.71-3.65-4.35-.29-8.08-.43-11.11-.43-6.22,0-8.32.62-9.02.98-1.17.63-2.3,1.93-3.35,3.86-1.08,2-1.7,3.95-1.82,5.81-.11,1.69.17,2.41.35,2.57.21.18,1.27.92,6.63,3.02,7.3,2.69,8.55,7.7,8.3,11.43-.65,9.85-10.84,14.84-30.3,14.84-2.95,0-6.18-.11-9.58-.34-14.19-.93-24.74-2.62-31.34-5.01-6.66-2.49-9.8-7.24-9.35-14.14.2-3.07,1.18-5.47,2.9-7.12,1.64-1.58,4.31-2.87,8.16-3.94,5.49-1.55,9.78-3.96,12.73-7.16,3.06-3.31,7.7-10.74,13.79-22.08l21.09-39.18c7.7-14.24,13.01-25.07,15.77-32.2,2.73-7.04,4.38-14.1,4.92-20.97.59-7.69,1.41-12.9,2.48-15.92,1.1-3.1,3.31-6.07,6.56-8.84,6.02-5.36,13.4-8.08,21.91-8.08.91,0,1.84.03,2.77.09,9.13.6,17.71,4.78,25.5,12.41,10.78,10.39,25.04,38.51,43.57,85.96l21.22,54.57c1.95,4.83,3.62,8.05,4.97,9.53,1.25,1.39,3.34,2.43,6.21,3.09,8.73,1.93,10.23,7.44,9.94,11.72-.46,7.03-5,11.84-13.49,14.31-5.34,1.55-12.9,2.34-22.47,2.34h0ZM518.6,164.51c.69.81,1.5.98,2.06.98.72,0,1.42-.28,1.95-.76.39-.36.85-1,.85-2.01v-18.67s17.24-7.12,17.24-7.12c1.31-.54,1.74-1.73,1.7-2.66-.04-.93-.56-2.08-1.91-2.52l-17.76-5.76-1.44-18.61c-.13-1.67-1.5-2.55-2.79-2.55-.51,0-1.47.15-2.2,1.14l-10.97,15.11-18.15-4.38c-.23-.06-.47-.08-.69-.08-1.01,0-1.94.59-2.42,1.53-.23.45-.66,1.62.24,2.86l10.98,15.1-9.77,15.91c-.54.88-.56,1.89-.07,2.77.5.89,1.41,1.44,2.38,1.44.29,0,.59-.05.89-.15l17.75-5.78,12.11,14.21Z"/>
    <path class="cls-3" d="M508.33,54.48c.88,0,1.77.03,2.68.09,8.8.58,16.98,4.58,24.55,11.99,10.54,10.15,24.94,38.63,43.22,85.43l21.22,54.57c2.03,5.04,3.78,8.37,5.25,9.99,1.47,1.63,3.8,2.81,6.99,3.55,6.21,1.37,9.14,4.76,8.78,10.16-.42,6.36-4.56,10.69-12.41,12.97-5.23,1.52-12.58,2.28-22.05,2.28-4.76,0-10.05-.19-15.88-.58-19.7-1.3-34.24-3.09-43.63-5.37-4.31-1.07-7.67-2.89-10.08-5.46-2.41-2.57-3.51-5.55-3.28-8.95.17-2.61.98-4.6,2.43-5.95,1.44-1.35,4.04-2.51,7.78-3.49,4.19-1.12,6.39-3.34,6.61-6.66.38-5.84-2.92-9.51-9.91-11.03-7.51-1.54-18.16-2.77-31.93-3.68-4.4-.29-8.14-.43-11.21-.43-5.02,0-8.25.39-9.72,1.16-1.45.78-2.78,2.27-3.97,4.47-1.2,2.2-1.86,4.34-2,6.43-.13,1.92.16,3.18.87,3.8.7.62,3.06,1.71,7.07,3.29,5.21,1.92,7.66,5.23,7.35,9.94-.59,8.96-10.19,13.44-28.8,13.44-2.93,0-6.1-.11-9.48-.33-14.12-.93-24.43-2.57-30.93-4.92-5.98-2.23-8.77-6.44-8.36-12.63.18-2.7.99-4.75,2.44-6.14,1.45-1.39,3.96-2.58,7.52-3.58,5.8-1.63,10.27-4.16,13.43-7.59,3.16-3.42,7.83-10.88,14.01-22.38l21.09-39.18c7.77-14.37,13.06-25.16,15.85-32.37,2.79-7.21,4.47-14.34,5.02-21.4.58-7.49,1.38-12.67,2.4-15.53,1.02-2.86,3.06-5.59,6.12-8.2,5.79-5.15,12.77-7.73,20.94-7.73M504.73,119.39l-17.17-4.14c-.36-.09-.71-.13-1.05-.13-3.3,0-5.51,3.87-3.4,6.77l10.39,14.28-9.24,15.05c-1.82,2.96.46,6.5,3.59,6.5.44,0,.9-.07,1.36-.22l16.8-5.47,11.46,13.44c.89,1.04,2.05,1.5,3.2,1.5,2.18,0,4.3-1.67,4.3-4.27v-17.66s16.32-6.74,16.32-6.74c3.66-1.51,3.46-6.76-.31-7.99l-16.8-5.45-1.37-17.61c-.19-2.45-2.22-3.93-4.28-3.93-1.26,0-2.53.55-3.41,1.76l-10.38,14.29M508.33,51.48c-8.87,0-16.58,2.85-22.9,8.46-3.44,2.93-5.79,6.11-6.98,9.45-1.12,3.15-1.96,8.48-2.57,16.31-.53,6.72-2.15,13.64-4.83,20.55-2.74,7.07-8.02,17.84-15.69,32.03l-21.1,39.19c-6.04,11.23-10.61,18.55-13.58,21.77-2.76,3-6.81,5.26-12.04,6.73-4.08,1.14-6.96,2.54-8.79,4.3-2,1.92-3.13,4.65-3.35,8.11-.5,7.53,3.07,12.94,10.3,15.64,6.86,2.48,17.24,4.15,31.78,5.11,3.43.23,6.69.34,9.68.34,20.39,0,31.09-5.46,31.8-16.24.28-4.24-1.11-9.92-9.28-12.94-4.01-1.58-5.47-2.33-5.97-2.63-.04-.22-.09-.67-.04-1.46.11-1.64.66-3.39,1.64-5.2.89-1.64,1.85-2.77,2.75-3.26.24-.12,1.84-.8,8.3-.8,2.99,0,6.7.14,11.01.43,13.57.89,24.17,2.11,31.52,3.62,7.02,1.52,7.71,5.01,7.52,7.89-.06.85-.19,2.83-4.39,3.95-4.26,1.12-7.22,2.49-9.05,4.2-2.01,1.88-3.15,4.55-3.37,7.94-.28,4.25,1.1,8.02,4.09,11.2,2.8,2.98,6.68,5.1,11.54,6.31,9.54,2.32,24.39,4.15,44.16,5.45,5.86.39,11.27.58,16.07.58,9.85,0,17.33-.78,22.89-2.4,11.4-3.32,14.21-10.34,14.56-15.65.26-3.99-.83-11.01-11.13-13.29-2.54-.58-4.37-1.47-5.41-2.63-.84-.94-2.34-3.27-4.7-9.11l-21.21-54.54c-18.61-47.66-32.98-75.96-43.93-86.51-8.04-7.88-16.94-12.2-26.44-12.82-.97-.06-1.93-.1-2.87-.1h0ZM505.98,122.78l1.18-1.62,10.38-14.29c.26-.35.58-.52.98-.52s1.22.24,1.29,1.17l1.37,17.61.16,2,1.91.62,16.8,5.45c.73.24.86.82.87,1.15.01.33-.07.92-.78,1.21l-16.33,6.74-1.86.77v2.01s0,17.66,0,17.66c0,.38-.12.68-.37.91-.24.23-.59.36-.93.36-.36,0-.66-.15-.92-.45l-11.46-13.44-1.3-1.53-1.91.62-16.8,5.47c-.15.05-.29.07-.43.07-.51,0-.89-.35-1.07-.68-.23-.41-.22-.83.04-1.25l9.24-15.05,1.05-1.71-1.18-1.62-10.39-14.28c-.38-.52-.27-.99-.11-1.29.18-.34.55-.71,1.08-.71.11,0,.22.01.34.04l17.17,4.14,1.95.47h0Z"/>
  </g>
</svg>